<?xml version="1.0" encoding="utf-8"?>
<svg xmlns="http://www.w3.org/2000/svg" id="Ebene_1" data-name="Ebene 1" viewBox="0 0 2000 460">
  <path d="M481.98,308.52c.18-.29.8-.85,1.93-1.72,36.69-39.19,88.85-77.82,90.3-75.53,0,11.28.07,23.47-21.72,37.1-17.16,10.73-64.32,37.13-70.51,40.15M952.65,332.51c37.11-23.17,73.57-48.22,95.48-67.16.71,19.41-41.69,70.9-89.29,100.07-20.77,12.74-17.74-7.3-6.19-32.91M969.43,301.16c6.18-10,12.73-19.23,18.76-26.08,17.53-19.92,29.63-28.91,38.85-32.81,2.44-.07,4.21-.06,6.02.06,20.99,1.41-16.68,29.14-63.64,58.83M1101.61,165.31c-57.4,3.99-95.97,7.19-125.01,9.85,11.55-14.45,26.25-34.3,33.84-43.89,6.81-8.6-1.9-14.54-5.64-21.7-4.2-6.61-5.47-3.05-9.68,2.53-4.39,5.83-20.17,26.03-36.83,46.24l-17.18,20.23c-7.7.77-14.79,1.49-21.62,2.16-71.43,7.07-60.88-2.68-38.31,22.72,8.47,5.63,32.22,2.94,29.31,7.79-14.85,24.75-115.09,118.95-149.84,145.71-13.02,10.03-25.91,20.51-28.22,15.78-3.16-6.48,9.64-32.73,24.74-68.23,13.45-31.6,21.2-48.31,18.35-53.6-1.46-2.71-8.07-14.64-10.86-17.43-5.47-5.45-13.48.22-41.07,23.75-22.11,18.87-65.89,52.48-81.92,64.45-2.49,1.87-1.86-1.25,38.09-51.75,10.05-12.71,18.17-22.47,28.49-35.96,9.24-12.07-7.11-15.93-7.11-15.93-18.31,12.72-25.41,20.88-43.74,36.03-18.34,15.15-42.96,34.39-64.8,50.31-107.82,78.6-122.78,78.91-126.38,78.6-3.25-.28-14.06-27.54,2.34-46.48,15.67-7.85,102.58-54.87,117.14-68.72,30.7-29.21,29.35-70.47,12.74-82-8.9-6.17-88.3,53.61-116.14,82.96-13.9,14.64-32.09,36.78-44.05,60.38-49.45,22.48-111.47,47.96-180.05,69.98-29.04,9.32-109.83,33.87-135.76,12.59-36.14-29.65,0-82.01,172.28-204.56,105.76-75.24,262.88-163.51,283.65-170.44,14.57-4.85,19.17-8.67,15.61-3.3-8.45,12.75-26.27,57.34-29.5,66.93-3.23,9.59,2.03,20.41,13.42,32.13,1.39,1.44,2.79,2.82,5.37,2.96,1.35.07,1.92-.72,1.21-1.41-4.93-4.76,5.92-23.97,15.6-40.11,9.66-16.14,15.39-25.68,24.19-39.71,8.8-14.02-21.1-37.45-29.85-46.91-8.74-9.45-24.04-4.48-58.98,7.95-8.19,2.92-246.92,128.86-418.14,289.42-65.44,61.37-80.37,127.56-12.65,147.18,38.2,11.07,93.99-2.11,182.68-35.61,49.73-18.79,98.47-40.06,140.59-59.94-4.7,19.71-2.39,38.88,12.86,54.13,14.57,14.57,27.4,4.87,113.34-48.74,38.59-24.07,54.9-38.42,57.39-36.77-4.94,11.19-13.21,24.06-17.55,32.73-8.47,16.93-15.3,25.44-9.47,32.8,9.4,11.88,13.33,16.02,25.42,4.77,23.2-21.62,107.7-97.99,110.34-100.62,2.64-2.63,8.96-9.47-.14,14.13-13.62,35.31-22.95,61.49-6.8,79.03,13.48,14.64,21.99,19.22,45.68,3.55,15.81-10.45,35.45-24.87,52.79-37.97-2.89,9.88-.48,19.98,4.28,32.42,4.13,10.8,10.71,13.36,19.65,9.81,15.94-5.08,49.72-22.76,86.74-44.64-.48,2.71-.89,5.45-1.16,8.24-3.49,37.11,13,41.16,30.04,40.11,24.01-1.49,74.65-36.83,119.77-100.07,33.88-47.49,0-65.9-5.09-72.55-6.42-8.38-2.91-18.64-21.5-13.85-26.87,6.93-61.75,31.21-83.23,61.24-10.05,14.05-22.22,30.7-30.56,49.95-26.53,14.33-55.17,27.5-78.73,36.7-.98.25-2.02.58-3.21,1.06-17.69,7.3-15.84,3.29-6.68-10.09,15.69-22.89,62.68-82.87,120.09-157.91,27.49-4.11,60.87-4.77,99.21-4.21,16.53.25,56.41-25.33,40.21-24.2M1419.12,174.65c3.35-.97-16.33-1.99-18.07-1.86-1.04.08-62.88,24.31-64.74,28.44-5.36,11.5,15.48,26.17,16.03,25.24,3.52-14.26,68.92-42.71,66.78-51.82M1725.11,244.91c22.2-4.88,69.33-2.31,77.81-7.7-1.61-.13-21.52-4.55-32.59-11.21-4.19-2.61-50.35-6.8-67.8-2.93-17.45,3.87,19.27,23.25,22.58,21.84M1367.68,320.69c25.73-34.47,57.25-61.44,58.61-59.75,1.01,9,5.38,13.9-10.76,26.69-12.71,10.07-48.66,33.85-47.84,33.06M1188.29,266.68c-14.48,20.32-92.2,103.48-100.06,105.37-8.71,2.09,21.55-39.33,37.08-58.31,25.35-30.97,59.91-68.53,67.52-66.3,7.61,2.23.35,12.38-4.54,19.24M1910.18,356.03c-48.43-1.02-227.83,2.43-250.54,2.87,6.59-11.36,15.26-25.65,23.3-38.5,23.01-37.99,31.37-46.25,25.43-55.49-9.52-14.78-12.69-20.11-18.8-14.26l.18-.63s-75.52,47.31-138.27,84.11c-29.53,17.31-72.64,44.88-68.56,30.61,4.08-14.28,18.41-35.07,40.33-57.94,27.87-29.06,46.23-42.82,52.38-43.02,1.64-.05-28.46,36.96-27.19,46.52.46,3.42,6.02,6.51,6.02,6.51,0,0,43.52-47.16,37.91-60.97-5.26-12.96-6.95-26.2-24.48-21.06-19.21,5.63-65.33,36.04-95.74,71.12,0,0-6.74,8.05-13.53,16.79-49.21,30.65-92.27,51.89-98.67,52.27-8.1.34-7.3-21.99-2.82-25.15,7.37-9.71,75.12-48.32,85.92-60.28,22.75-25.22,13.79-61.3-.2-69.5-7.49-4.39-60.45,44.34-80.91,69.49-10.21,12.55-23.4,31.35-31.51,50.94,0,0-.56,1.63-1.35,3.93-2.82,3.5-5.38,6.79-6.18,8.66-.14-1.42-.32-1.96-.52-1.98.03.54,0,1.08.04,1.63-1.83,7.8-.86-1.71-.04-1.63-1.73-41.35,23.25-76.2,24.02-87.35.43-6.28-19.53-23.4-19.53-23.4,0,0-.7.82-1.97,2.59-6.85,6.87-105.38,107.23-118.76,115-3.99,2.31-16.86-18.38,28.94-94.21,45.24-62.18,106.42-141.29,118.22-159.99,14.77-23.42,15.66-31.95,8.17-42.93-7.49-10.99-6.78-5.11-19.99,13.03-11.73,16.1-111.78,144.45-115.68,149.46-6.33,8.14-10.83,12.36-10.83,12.36,0,0,.43-34.66-13.31-33.64-13.74,1.02-136.27,122.77-143.01,169.92-2.64,18.43,15.92,29.59,21.2,33.05,4.92,3.22,65.57-54.35,85.43-72.54-.82,23.18,11.83,58.59,32.97,55.74,13.71-1.85,68.97-56.2,103.33-92.06-13.78,47.75-6.12,63.05.32,78.08,5.4,4.05,11.64,7.15,18.05,9.95,1.58,2.37,3.68,5.14,6.52,8.52,6.08,4.46,12.02,10.32,30.33,5.96,13.98-3.33,43.04-17.13,87.92-45.03-4.87,20.72,2.57,38.07,32.04,39.95,17.14,1.09,137.42-72.82,185.41-102.78-13.69,19.03-23.04,36.09-36.14,60.8-4.21,7.96-5.41,14.46-4.36,19.43.04.2.08.41.12.61.06.25.12.49.2.72.39,1.39,1.02,2.63,1.89,3.75,1.25,1.7,2.94,3.04,4.98,4.04,1.54.87,3.28,1.68,5.27,2.47,3.41,1.35,10.42-1.04,54.13-6.01,40.04-4.54,242.64-6.54,250.65-6.98,4.69-.26-19.35-13.31-28.72-13.51"/>
</svg>